<?xml version="1.0" standalone="no"?>
<!DOCTYPE svg PUBLIC "-//W3C//DTD SVG 20010904//EN"
 "http://www.w3.org/TR/2001/REC-SVG-20010904/DTD/svg10.dtd">
<svg version="1.0" xmlns="http://www.w3.org/2000/svg"
 width="3060.000000pt" height="1243.000000pt" viewBox="0 0 3060.000000 1243.000000"
 preserveAspectRatio="xMidYMid meet">
<metadata>
Created by potrace 1.16, written by Peter Selinger 2001-2019
</metadata>
<g transform="translate(0.000000,1243.000000) scale(0.100000,-0.100000)"
fill="#000000" stroke="none">
<path d="M16430 10879 c-587 -51 -1107 -408 -1360 -933 -267 -553 -216 -1232
130 -1749 116 -174 315 -368 492 -481 412 -262 938 -327 1417 -174 739 235
1221 976 1160 1783 -40 531 -306 992 -739 1281 -234 156 -502 247 -800 274
-128 11 -163 11 -300 -1z m385 -325 c226 -37 467 -152 649 -309 78 -68 201
-216 259 -312 281 -467 269 -1083 -31 -1548 -369 -574 -1093 -777 -1690 -473
-133 67 -239 147 -351 264 -193 200 -310 424 -372 714 -33 151 -33 448 -1 597
101 466 401 829 820 994 231 90 464 114 717 73z"/>
<path d="M11680 9175 l0 -1655 165 0 165 0 0 750 0 750 955 0 955 0 0 -750 0
-750 170 0 170 0 0 1655 0 1655 -170 0 -170 0 0 -750 0 -750 -955 0 -955 0 0
750 0 750 -165 0 -165 0 0 -1655z"/>
<path d="M19010 9175 l0 -1655 935 0 935 0 0 150 0 150 -765 0 -765 0 0 1505
0 1505 -170 0 -170 0 0 -1655z"/>
<path d="M21560 9175 l0 -1655 633 0 c671 0 725 3 930 51 448 105 795 373 990
764 119 239 177 513 177 840 0 330 -57 596 -181 842 -234 464 -676 745 -1263
802 -64 7 -356 11 -698 11 l-588 0 0 -1655z m1330 1331 c211 -41 398 -115 544
-216 93 -64 231 -206 292 -301 91 -140 152 -299 191 -494 25 -127 26 -509 0
-642 -90 -480 -371 -815 -804 -957 -202 -67 -223 -69 -745 -73 l-478 -5 0
1357 0 1357 458 -5 c365 -4 474 -8 542 -21z"/>
<path d="M24950 9175 l0 -1655 980 0 980 0 0 150 0 150 -810 0 -810 0 0 605 0
605 625 0 625 0 0 150 0 150 -625 0 -625 0 0 600 0 600 770 0 770 0 0 150 0
150 -940 0 -940 0 0 -1655z"/>
<path d="M27750 9175 l0 -1655 165 0 166 0 -5 1343 c-2 738 -7 1369 -11 1402
l-6 60 96 -160 c132 -219 123 -207 1038 -1495 l813 -1145 167 -3 167 -2 0
1655 0 1655 -171 0 -170 0 4 -1317 c3 -800 9 -1351 15 -1403 6 -47 9 -86 8
-87 -1 -1 -54 83 -117 188 -79 132 -377 562 -974 1404 l-860 1214 -162 0 -163
1 0 -1655z"/>
<path d="M9207 9390 c-185 -149 -337 -277 -337 -284 0 -8 7 -74 16 -148 20
-162 23 -543 5 -708 -26 -248 -72 -491 -132 -705 -338 -1195 -1196 -2284
-2459 -3120 -774 -512 -1533 -808 -2300 -896 -158 -18 -510 -16 -660 5 -344
46 -638 150 -879 310 -46 30 -89 52 -95 49 -20 -12 -266 -214 -266 -219 0 -9
251 -129 357 -170 219 -86 501 -154 788 -191 174 -22 683 -25 875 -5 658 68
1281 250 1880 548 808 403 1586 1010 2185 1704 1047 1214 1562 2676 1389 3945
-9 66 -19 128 -23 138 -6 15 -65 -29 -344 -253z"/>
<path d="M12665 6799 c-443 -29 -846 -225 -1111 -542 -365 -434 -501 -991
-378 -1543 147 -663 592 -1116 1221 -1243 99 -21 395 -47 411 -37 5 3 65 -36
135 -87 352 -257 678 -419 998 -497 392 -96 817 -114 1229 -54 195 29 236 43
228 83 -4 20 -70 21 -285 2 -254 -23 -548 9 -800 85 -307 93 -610 238 -931
447 l-124 80 104 37 c628 221 1033 756 1109 1465 15 147 6 398 -20 542 -119
644 -573 1095 -1235 1228 -110 22 -176 29 -366 39 -36 2 -119 0 -185 -5z m365
-178 c235 -53 448 -176 614 -352 220 -234 353 -539 402 -922 22 -178 15 -499
-15 -672 -67 -379 -229 -667 -481 -856 -81 -60 -261 -144 -375 -176 -93 -25
-114 -27 -290 -27 -172 1 -199 3 -286 26 -254 69 -444 180 -617 363 -87 92
-183 228 -239 339 -248 491 -266 1204 -43 1661 58 119 115 200 208 297 183
190 414 302 700 338 104 13 325 3 422 -19z"/>
<path d="M18005 6690 c-385 -34 -695 -141 -941 -326 -39 -30 -114 -98 -166
-153 -189 -197 -323 -443 -392 -719 -45 -181 -51 -237 -51 -477 1 -211 3 -240
28 -356 160 -753 660 -1189 1502 -1311 142 -21 583 -17 720 5 291 49 561 143
592 207 10 19 13 135 13 455 1 453 11 724 31 790 6 21 25 53 43 71 31 31 47
36 186 61 39 7 45 11 45 32 0 37 -29 40 -267 31 -117 -4 -325 -4 -461 0 -137
4 -260 5 -275 1 -19 -5 -28 -15 -30 -33 -3 -26 -1 -26 65 -33 152 -14 224 -45
261 -112 35 -64 43 -212 40 -693 -3 -424 -3 -425 -26 -462 -75 -120 -473 -180
-812 -122 -399 69 -768 301 -979 618 -128 193 -218 408 -267 640 -35 165 -44
446 -20 619 43 306 148 556 306 729 159 175 406 305 670 355 144 27 522 24
681 -5 237 -43 452 -133 567 -238 93 -84 137 -185 167 -386 5 -34 9 -38 35
-38 37 0 37 3 44 280 3 118 10 264 17 323 10 91 9 111 -2 122 -9 8 -61 18
-134 25 -66 7 -191 25 -278 41 -87 16 -213 36 -280 45 -146 18 -492 26 -632
14z"/>
<path d="M21450 6689 c-359 -36 -688 -185 -939 -424 -154 -148 -257 -290 -355
-495 -114 -237 -166 -449 -173 -710 -15 -503 163 -973 491 -1295 297 -291 678
-435 1151 -435 441 0 815 135 1129 406 392 340 614 923 568 1492 -31 387 -150
686 -375 944 -330 378 -905 576 -1497 517z m463 -182 c369 -97 672 -363 839
-738 232 -521 207 -1283 -57 -1727 -170 -286 -457 -477 -795 -528 -123 -18
-207 -18 -338 2 -553 82 -972 506 -1117 1129 -65 281 -70 623 -14 900 111 546
449 889 969 981 49 9 133 12 245 10 143 -3 185 -8 268 -29z"/>
<path d="M24078 6678 c-10 -18 -14 -323 -19 -1493 -4 -995 -10 -1487 -17
-1524 -17 -84 -30 -116 -60 -144 -30 -29 -123 -57 -188 -57 -23 0 -49 -3 -58
-6 -19 -7 -21 -38 -3 -52 14 -11 968 -14 987 -2 6 4 10 18 8 31 -3 21 -9 24
-53 27 -96 5 -189 23 -226 44 -74 42 -111 155 -123 378 -10 176 -58 2023 -54
2075 l3 46 316 -353 c351 -392 660 -733 878 -968 476 -512 1179 -1236 1255
-1291 44 -33 80 -37 92 -11 4 9 11 622 15 1362 8 1508 11 1650 29 1700 29 79
89 115 218 129 53 6 57 8 60 34 2 15 0 28 -5 28 -45 7 -932 4 -946 -3 -11 -6
-17 -18 -15 -31 3 -20 11 -23 88 -29 268 -24 304 -69 316 -393 7 -194 44
-1971 44 -2092 l-1 -98 -27 31 c-149 171 -804 887 -1593 1744 -200 218 -473
515 -606 662 -134 146 -250 268 -259 272 -28 11 -43 6 -56 -16z"/>
<path d="M29040 6693 c-603 -37 -1040 -265 -1326 -693 -332 -498 -372 -1227
-96 -1776 162 -323 390 -542 724 -698 265 -124 541 -183 898 -193 307 -9 564
24 797 102 154 51 238 97 252 136 7 22 11 185 11 508 0 262 4 526 9 587 18
206 52 244 244 269 45 6 48 8 45 33 -2 18 -11 28 -29 33 -14 3 -120 3 -235 -1
-115 -4 -321 -4 -457 0 -245 8 -280 6 -304 -13 -36 -27 -4 -46 95 -56 115 -12
190 -44 219 -92 39 -64 43 -120 43 -635 0 -420 -2 -499 -15 -524 -50 -97 -250
-153 -545 -153 -301 0 -556 67 -791 209 -273 165 -447 360 -589 656 -198 416
-231 906 -91 1336 85 258 223 448 422 582 219 146 421 206 734 217 401 14 766
-76 977 -241 96 -76 154 -186 178 -332 19 -118 18 -116 47 -112 37 4 41 23 42
223 1 155 12 336 26 440 9 66 -2 72 -145 85 -69 6 -179 22 -245 35 -326 64
-609 85 -895 68z"/>
<path d="M14948 6629 c-5 -3 -8 -17 -6 -30 3 -21 11 -24 83 -35 44 -6 97 -19
118 -29 50 -23 83 -82 97 -171 8 -49 10 -455 7 -1345 -3 -1145 -5 -1282 -20
-1357 -32 -155 -63 -186 -199 -200 -67 -6 -73 -9 -76 -31 -2 -13 1 -27 7 -31
15 -9 1045 -10 1060 0 7 4 11 18 9 31 -3 22 -8 24 -83 30 -187 14 -230 30
-264 96 -55 109 -63 349 -58 1693 4 1223 2 1188 66 1254 36 37 79 53 169 62
49 6 63 11 68 26 3 11 1 25 -5 31 -12 12 -953 18 -973 6z"/>
<path d="M1407 3126 c-202 -164 -197 -143 -37 -166 195 -28 384 -91 615 -205
303 -150 550 -323 1090 -765 546 -447 701 -568 971 -757 1089 -763 2237 -1145
3671 -1224 317 -17 951 -7 1163 20 420 52 727 134 993 267 160 80 250 144 367
263 116 117 170 200 217 336 25 73 27 93 28 230 0 169 -15 242 -81 383 -123
267 -413 561 -752 763 -442 263 -1006 449 -1623 534 -131 18 -192 11 -221 -26
-23 -28 -23 -46 2 -87 32 -52 101 -77 305 -112 393 -66 731 -176 1035 -336
838 -443 1202 -1193 793 -1635 -153 -165 -376 -264 -713 -316 -139 -21 -515
-24 -685 -5 -395 45 -901 144 -1335 263 -854 233 -1608 562 -2448 1066 -263
157 -345 210 -892 568 -228 150 -487 317 -575 372 -450 280 -853 480 -1196
594 -133 43 -394 109 -459 114 l-55 5 -178 -144z"/>
</g>
</svg>
